<svg xmlns="http://www.w3.org/2000/svg" viewBox="0 0 67.19 36.02"><defs><style>.cls-1{fill:#fff;}</style></defs><g id="Layer_2" data-name="Layer 2"><g id="Layer_1-2" data-name="Layer 1"><path class="cls-1" d="M63.82,0H10.61A3.36,3.36,0,0,0,7.55,2V2a2.44,2.44,0,0,0-.1.24L.23,20.54a2,2,0,0,0-.23.92V34a2,2,0,0,0,2,2H33.89a1.81,1.81,0,0,0,.52-.07l30-8a2.84,2.84,0,0,0,.31-.06l.28-.09.37-.1-.07,0a3.36,3.36,0,0,0,1.91-3V3.37A3.37,3.37,0,0,0,63.82,0Z"/><rect x="55.5" y="3.15" width="5.56" height="10.14"/><path d="M40.2,13.29h4.57a3.09,3.09,0,0,0,2.17-.92l.56-.65.56.65a3.13,3.13,0,0,0,2.17.92h4.59l-4.34-5,4.41-5.12H50.25a3.07,3.07,0,0,0-2.08.92l-.66.77-.67-.77a3.08,3.08,0,0,0-2.13-.92H40.12l4.41,5.12Z"/><path d="M52,15a1.92,1.92,0,0,0-1.93,1.93s0,.09,0,.14a1.93,1.93,0,0,0,0,.24V25.1H61.73V22.4H55.12V21.07H59.2v-2H55.12V17.66h6.61V15Z"/><polygon points="36.3 14.96 36.3 17.69 40.85 17.69 35.54 25.1 48.99 25.1 48.99 22.37 44.29 22.37 49.56 14.96 36.3 14.96"/><path d="M21.3,17.25s-1-2.24-3-2.24h-4V25.1h4.49V22.5L21.3,24l2.52-1.51v2.6h4.49V15h-4C22.31,15,21.3,17.25,21.3,17.25Z"/><rect x="29.37" y="14.96" width="5.56" height="10.14"/><path d="M16.27,10.71l2.5,1.5,2.5-1.5v2.58h4.44v-10H21.76c-2,0-3,2.21-3,2.21s-1-2.21-3-2.21h-4v10h4.45Z"/><path d="M32.34,10.29H34v3h5.56V5.57A2.07,2.07,0,0,0,38.3,3.73S37,3,33.15,3,28,3.73,28,3.73h0a2.05,2.05,0,0,0-1.22,1.84v7.72h5.56ZM32.08,6.7h0a1.07,1.07,0,0,1,2.14,0V8.94H32.08Z"/><path class="cls-1" d="M34.22,7.8V6.7a1.07,1.07,0,0,0-2.14,0h0V8.94h2.14Z"/></g></g></svg>