<svg id="visual" viewBox="0 0 900 600" width="900" height="600" xmlns="http://www.w3.org/2000/svg" xmlns:xlink="http://www.w3.org/1999/xlink" version="1.1"><path d="M0 416L100 440L200 357L300 371L400 427L500 416L600 366L700 391L800 443L900 428L900 601L800 601L700 601L600 601L500 601L400 601L300 601L200 601L100 601L0 601Z" fill="#fc2e53"></path><path d="M0 402L100 449L200 398L300 449L400 474L500 437L600 423L700 443L800 467L900 421L900 601L800 601L700 601L600 601L500 601L400 601L300 601L200 601L100 601L0 601Z" fill="#c12444"></path><path d="M0 449L100 483L200 459L300 458L400 506L500 484L600 442L700 489L800 454L900 484L900 601L800 601L700 601L600 601L500 601L400 601L300 601L200 601L100 601L0 601Z" fill="#881b33"></path><path d="M0 503L100 501L200 513L300 535L400 505L500 537L600 522L700 488L800 510L900 539L900 601L800 601L700 601L600 601L500 601L400 601L300 601L200 601L100 601L0 601Z" fill="#531221"></path><path d="M0 570L100 558L200 563L300 546L400 538L500 562L600 559L700 557L800 544L900 527L900 601L800 601L700 601L600 601L500 601L400 601L300 601L200 601L100 601L0 601Z" fill="#25060b"></path></svg>